<svg xmlns="http://www.w3.org/2000/svg" width="1200" height="420" viewBox="0 0 1200 420" role="img" aria-label="Enclave — Clinical document AI that never phones home">
  <rect width="1200" height="420" fill="#FAFBFC"/>

  <!-- vault mark -->
  <g transform="translate(84 132) scale(2.3)">
    <rect x="7" y="7" width="50" height="50" rx="14" fill="none" stroke="#1FAE83" stroke-width="4.5"/>
    <path d="M23 18h11l8 8v19H23Z" fill="none" stroke="#66727E" stroke-width="3" stroke-linejoin="round"/>
    <path d="M34 18v8h8" fill="none" stroke="#66727E" stroke-width="3" stroke-linejoin="round"/>
    <path d="M27.5 33h10M27.5 39h6.5" stroke="#1FAE83" stroke-width="3" stroke-linecap="round"/>
    <circle cx="51" cy="51" r="11.5" fill="#FAFBFC"/>
    <path d="M47 50v-2.5a4 4 0 0 1 8 0V50" fill="none" stroke="#1FAE83" stroke-width="2.6"/>
    <rect x="44.5" y="50" width="13" height="10" rx="2.5" fill="#1FAE83"/>
  </g>

  <!-- wordmark + tagline -->
  <text x="272" y="208" font-family="system-ui, -apple-system, 'Segoe UI', sans-serif" font-size="88" font-weight="700" letter-spacing="-2" fill="#111418">Enclave</text>
  <text x="276" y="252" font-family="system-ui, -apple-system, 'Segoe UI', sans-serif" font-size="22" fill="#57606A">Clinical document AI that <tspan fill="#0F8F6B">never phones home</tspan>.</text>
  <text x="276" y="284" font-family="system-ui, -apple-system, 'Segoe UI', sans-serif" font-size="22" fill="#57606A">Local agentic extraction, measured against the cloud.</text>

  <!-- provider columns: local wins on privacy -->
  <g font-family="system-ui, -apple-system, 'Segoe UI', sans-serif" font-size="12.5" letter-spacing="2.5" text-anchor="middle">
    <rect x="942" y="180" width="20" height="96" rx="3" fill="#EAEEF2" stroke="#C9D2DA"/>
    <rect x="1022" y="120" width="20" height="156" rx="3" fill="#4FD1A5" stroke="#1FAE83"/>
    <rect x="1102" y="150" width="20" height="126" rx="3" fill="#EAEEF2" stroke="#C9D2DA"/>
    <line x1="918" y1="276.5" x2="1146" y2="276.5" stroke="#C9D2DA" stroke-width="1.5"/>
    <path d="M1028 107v-3a4 4 0 0 1 8 0v3" fill="none" stroke="#1FAE83" stroke-width="2.4"/>
    <rect x="1025" y="107" width="14" height="10" rx="2.5" fill="#1FAE83"/>
    <text x="952" y="304" fill="#6B7480">RULES</text>
    <text x="1032" y="304" fill="#0F8F6B" font-weight="600">LOCAL</text>
    <text x="1112" y="304" fill="#6B7480">BEDROCK</text>
  </g>
</svg>
